<svg xmlns="http://www.w3.org/2000/svg" version="1.1" xmlns:xlink="http://www.w3.org/1999/xlink" xmlns:svgjs="http://svgjs.dev/svgjs" viewBox="0 0 14.060888818334979 3.1451386914715016"><g transform="matrix(1,0,0,1,3.0220301597591206,0.5716119416164325)"><g><path d=" M 0.06 1.188 L 0.06 0.9255 L 0.1785 0.9255 L 0.1785 0.2789999999999999 L 0.063 0.2789999999999999 L 0.063 0.020999999999999908 L 0.6015 0.020999999999999908 L 0.966 0.714 L 0.966 0.28049999999999997 L 0.849 0.28049999999999997 L 0.849 0.022499999999999964 L 1.3155000000000001 0.022499999999999964 L 1.3155000000000001 0.28049999999999997 L 1.2 0.28049999999999997 L 1.2 1.188 L 0.756 1.188 L 0.40950000000000003 0.5445 L 0.40950000000000003 0.9255 L 0.5265 0.9255 L 0.5265 1.188 L 0.06 1.188 Z M 1.6882375488281252 1.131 Q 1.555487548828125 1.053 1.486487548828125 0.91575 Q 1.417487548828125 0.7785 1.417487548828125 0.603 Q 1.417487548828125 0.4214999999999999 1.486487548828125 0.2849999999999999 Q 1.555487548828125 0.14849999999999985 1.6874875488281251 0.07424999999999993 Q 1.8194875488281252 0 2.003987548828125 0 Q 2.188487548828125 0 2.320487548828125 0.07424999999999993 Q 2.4524875488281253 0.14849999999999985 2.521487548828125 0.2849999999999999 Q 2.590487548828125 0.4214999999999999 2.590487548828125 0.603 Q 2.590487548828125 0.7785 2.521487548828125 0.91575 Q 2.4524875488281253 1.053 2.319737548828125 1.131 Q 2.1869875488281254 1.2089999999999999 2.003987548828125 1.2089999999999999 Q 1.820987548828125 1.2089999999999999 1.6882375488281252 1.131 Z M 2.1254875488281253 0.8534999999999999 Q 2.167487548828125 0.7575 2.167487548828125 0.597 Q 2.167487548828125 0.44099999999999995 2.126987548828125 0.35024999999999995 Q 2.086487548828125 0.25949999999999995 2.003987548828125 0.25949999999999995 Q 1.9214875488281251 0.25949999999999995 1.8809875488281251 0.35024999999999995 Q 1.8404875488281252 0.44099999999999995 1.8404875488281252 0.597 Q 1.8404875488281252 0.7575 1.8824875488281252 0.8534999999999999 Q 1.9244875488281252 0.9494999999999999 2.003987548828125 0.9494999999999999 Q 2.083487548828125 0.9494999999999999 2.1254875488281253 0.8534999999999999 Z M 3.1034238281250004 1.188 L 2.839423828125 0.28049999999999997 L 2.7179238281250004 0.28049999999999997 L 2.7179238281250004 0.022499999999999964 L 3.3509238281250004 0.022499999999999964 L 3.3509238281250004 0.28049999999999997 L 3.2669238281250004 0.28049999999999997 L 3.413923828125 0.8099999999999999 L 3.542923828125 0.28049999999999997 L 3.4469238281250005 0.28049999999999997 L 3.4469238281250005 0.022499999999999964 L 3.9554238281250003 0.022499999999999964 L 3.9554238281250003 0.28049999999999997 L 3.8234238281250006 0.28049999999999997 L 3.532423828125 1.188 L 3.1034238281250004 1.188 Z M 4.030395263671875 1.188 L 4.030395263671875 0.9299999999999999 L 4.145895263671875 0.9299999999999999 L 4.346895263671875 0.28049999999999997 L 4.193895263671875 0.28049999999999997 L 4.193895263671875 0.022499999999999964 L 4.919895263671875 0.022499999999999964 L 5.179395263671875 0.9299999999999999 L 5.294895263671875 0.9299999999999999 L 5.294895263671875 1.188 L 4.639395263671875 1.188 L 4.639395263671875 0.9299999999999999 L 4.733895263671875 0.9299999999999999 L 4.702395263671875 0.8054999999999999 L 4.438395263671875 0.8054999999999999 L 4.405395263671875 0.9299999999999999 L 4.544895263671875 0.9299999999999999 L 4.544895263671875 1.188 L 4.030395263671875 1.188 Z M 4.475895263671875 0.6285 L 4.667895263671875 0.6285 L 4.582395263671875 0.27149999999999996 L 4.475895263671875 0.6285 Z M 5.57681689453125 1.188 L 5.57681689453125 0.9239999999999999 L 5.696816894531249 0.9239999999999999 L 5.696816894531249 0.28049999999999997 L 5.59331689453125 0.28049999999999997 L 5.561816894531249 0.48149999999999993 L 5.35631689453125 0.48149999999999993 L 5.35631689453125 0.022499999999999964 L 6.452816894531249 0.022499999999999964 L 6.452816894531249 0.48149999999999993 L 6.24731689453125 0.48149999999999993 L 6.215816894531249 0.28049999999999997 L 6.10931689453125 0.28049999999999997 L 6.10931689453125 0.9239999999999999 L 6.22931689453125 0.9239999999999999 L 6.22931689453125 1.188 L 5.57681689453125 1.188 Z M 6.617742187499999 0.9299999999999999 L 6.734742187499999 0.9299999999999999 L 6.734742187499999 0.28049999999999997 L 6.617742187499999 0.28049999999999997 L 6.617742187499999 0.022499999999999964 L 7.366242187499999 0.022499999999999964 Q 7.547742187499999 0.022499999999999964 7.6332421875 0.09599999999999986 Q 7.718742187499999 0.16949999999999998 7.718742187499999 0.33899999999999997 Q 7.718742187499999 0.45299999999999996 7.6549921874999995 0.5145 Q 7.591242187499999 0.576 7.4742421875 0.597 Q 7.579242187499999 0.6134999999999999 7.625742187499999 0.67575 Q 7.672242187499999 0.738 7.672242187499999 0.831 L 7.672242187499999 0.9255 L 7.835742187499999 0.9255 L 7.835742187499999 1.188 L 7.600242187499999 1.188 Q 7.486242187499999 1.188 7.436742187499999 1.173 Q 7.387242187499999 1.158 7.360992187499999 1.0905 Q 7.334742187499999 1.023 7.334742187499999 0.8654999999999999 Q 7.334742187499999 0.7754999999999999 7.3054921875 0.732 Q 7.276242187499999 0.6884999999999999 7.198242187499999 0.6884999999999999 L 7.109742187499999 0.6884999999999999 L 7.109742187499999 0.9299999999999999 L 7.226742187499999 0.9299999999999999 L 7.226742187499999 1.188 L 6.617742187499999 1.188 L 6.617742187499999 0.9299999999999999 Z M 7.2102421875 0.5219999999999999 Q 7.289742187499999 0.5219999999999999 7.3287421875 0.49349999999999994 Q 7.367742187499999 0.46499999999999997 7.367742187499999 0.3929999999999999 Q 7.367742187499999 0.3404999999999999 7.3279921875 0.3104999999999999 Q 7.288242187499999 0.28049999999999997 7.225242187499999 0.28049999999999997 L 7.109742187499999 0.28049999999999997 L 7.109742187499999 0.5219999999999999 L 7.2102421875 0.5219999999999999 Z M 8.158928466796874 1.131 Q 8.026178466796875 1.053 7.957178466796875 0.91575 Q 7.888178466796875 0.7785 7.888178466796875 0.603 Q 7.888178466796875 0.4214999999999999 7.957178466796875 0.2849999999999999 Q 8.026178466796875 0.14849999999999985 8.158178466796874 0.07424999999999993 Q 8.290178466796874 0 8.474678466796874 0 Q 8.659178466796876 0 8.791178466796875 0.07424999999999993 Q 8.923178466796875 0.14849999999999985 8.992178466796876 0.2849999999999999 Q 9.061178466796875 0.4214999999999999 9.061178466796875 0.603 Q 9.061178466796875 0.7785 8.992178466796876 0.91575 Q 8.923178466796875 1.053 8.790428466796875 1.131 Q 8.657678466796876 1.2089999999999999 8.474678466796874 1.2089999999999999 Q 8.291678466796874 1.2089999999999999 8.158928466796874 1.131 Z M 8.596178466796875 0.8534999999999999 Q 8.638178466796875 0.7575 8.638178466796875 0.597 Q 8.638178466796875 0.44099999999999995 8.597678466796875 0.35024999999999995 Q 8.557178466796875 0.25949999999999995 8.474678466796874 0.25949999999999995 Q 8.392178466796874 0.25949999999999995 8.351678466796875 0.35024999999999995 Q 8.311178466796875 0.44099999999999995 8.311178466796875 0.597 Q 8.311178466796875 0.7575 8.353178466796875 0.8534999999999999 Q 8.395178466796875 0.9494999999999999 8.474678466796874 0.9494999999999999 Q 8.554178466796875 0.9494999999999999 8.596178466796875 0.8534999999999999 Z M 9.220114746093751 1.188 L 9.220114746093751 0.9255 L 9.33861474609375 0.9255 L 9.33861474609375 0.2789999999999999 L 9.223114746093751 0.2789999999999999 L 9.223114746093751 0.020999999999999908 L 9.76161474609375 0.020999999999999908 L 10.12611474609375 0.714 L 10.12611474609375 0.28049999999999997 L 10.00911474609375 0.28049999999999997 L 10.00911474609375 0.022499999999999964 L 10.47561474609375 0.022499999999999964 L 10.47561474609375 0.28049999999999997 L 10.36011474609375 0.28049999999999997 L 10.36011474609375 1.188 L 9.91611474609375 1.188 L 9.56961474609375 0.5445 L 9.56961474609375 0.9255 L 9.68661474609375 0.9255 L 9.68661474609375 1.188 L 9.220114746093751 1.188 Z" fill="#3f170e" fill-rule="nonzero"></path></g><g><path d=" M 0.21439985795454544 1.5808388139204546 Q 0.1504794034090909 1.5808388139204546 0.12970525568181818 1.6049421519886362 Q 0.10893110795454544 1.629045490056818 0.10893110795454544 1.6591413707386362 Q 0.10893110795454544 1.6849758877840908 0.12690873579545453 1.700822833806818 Q 0.14488636363636362 1.7166697798295454 0.1805752840909091 1.7254588423295454 L 0.2570134943181818 1.744368643465909 Q 0.30948153409090906 1.7574190696022727 0.34250710227272724 1.7871154474431816 Q 0.3755326704545454 1.8168118252840908 0.3755326704545454 1.879933274147727 Q 0.3755326704545454 1.9489140980113635 0.32093394886363635 1.9790099786931816 Q 0.26633522727272724 2.009105859375 0.1965553977272727 2.009105859375 Q 0.16832386363636362 2.009105859375 0.1387606534090909 2.0016484730113633 Q 0.10919744318181818 1.994191086647727 0.08362926136363635 1.976612961647727 Q 0.08256392045454544 1.9856683593749997 0.07803622159090909 1.997120774147727 Q 0.07350852272727272 2.0085731889204546 0.064453125 2.0085731889204546 Q 0.054865056818181816 2.0085731889204546 0.049005681818181816 2.0045781605113633 Q 0.043146306818181816 2.0005831321022725 0.042080965909090905 1.9915277343749997 L 0.026899857954545452 1.859425461647727 Q 0.026899857954545452 1.848772052556818 0.033291903409090905 1.843578515625 Q 0.03968394886363636 1.8383849786931816 0.05246803977272727 1.8383849786931816 Q 0.06045809659090909 1.8383849786931816 0.06658380681818181 1.8430458451704543 Q 0.07270951704545454 1.847706711647727 0.07377485795454546 1.855696768465909 L 0.07803622159090909 1.892717365056818 Q 0.08069957386363635 1.9174865411931816 0.11479048295454544 1.9397255326704543 Q 0.14888139204545453 1.961964524147727 0.18989701704545453 1.961964524147727 Q 0.23544034090909088 1.961964524147727 0.2781871448863636 1.9457180752840908 Q 0.32093394886363635 1.9294716264204543 0.32093394886363635 1.8796669389204543 Q 0.32093394886363635 1.8437116832386362 0.29922762784090906 1.8295959161931816 Q 0.2775213068181818 1.815480149147727 0.24769176136363635 1.806957421875 L 0.1603338068181818 1.7821882457386362 Q 0.11265980113636363 1.771534836647727 0.08136541193181818 1.7442354758522727 Q 0.05007102272727272 1.716936115056818 0.05007102272727272 1.663402734375 Q 0.05007102272727272 1.6050753196022727 0.09574751420454544 1.571916583806818 Q 0.14142400568181818 1.5387578480113635 0.20561079545454544 1.5387578480113635 Q 0.23330965909090906 1.5387578480113635 0.2624733664772727 1.5456825639204546 Q 0.29163707386363635 1.5526072798295454 0.3108132102272727 1.568587393465909 Q 0.3108132102272727 1.5574013139204546 0.31787109375 1.5482127485795454 Q 0.32492897727272724 1.5390241832386362 0.33584872159090906 1.5390241832386362 Q 0.3438387784090909 1.5390241832386362 0.3499644886363636 1.5438182173295454 Q 0.35609019886363635 1.5486122514204546 0.35715553977272724 1.5566023082386362 L 0.35901988636363635 1.662337393465909 Q 0.35901988636363635 1.6737898082386362 0.3520951704545454 1.6789833451704546 Q 0.34517045454545453 1.6841768821022727 0.3345170454545454 1.6841768821022727 Q 0.3251953125 1.6841768821022727 0.3192027698863636 1.6801818536931816 Q 0.31321022727272724 1.6761868252840908 0.31214488636363635 1.6673977627840908 L 0.3110795454545454 1.6365028764204546 Q 0.3076171875 1.6064069957386362 0.27805397727272724 1.5936229048295454 Q 0.24849076704545453 1.5808388139204546 0.21439985795454544 1.5808388139204546 L 0.21439985795454544 1.5808388139204546 Z M 0.6623757102272727 2.0085731889204546 Q 0.5582386363636364 2.0085731889204546 0.4919211647727273 1.9447859019886362 Q 0.4256036931818182 1.880998615056818 0.4256036931818182 1.775529865056818 Q 0.4256036931818182 1.6697947798295454 0.4919211647727273 1.6042763139204546 Q 0.5582386363636364 1.5387578480113635 0.6623757102272727 1.5387578480113635 Q 0.7678444602272727 1.5387578480113635 0.8345614346590908 1.6042763139204546 Q 0.9012784090909091 1.6697947798295454 0.9012784090909091 1.775529865056818 Q 0.9012784090909091 1.880998615056818 0.8342950994318181 1.9447859019886362 Q 0.7673117897727273 2.0085731889204546 0.6623757102272727 2.0085731889204546 L 0.6623757102272727 2.0085731889204546 Z M 0.6599786931818181 1.589095205965909 Q 0.5806107954545454 1.589095205965909 0.5363991477272727 1.6419627485795454 Q 0.4921875 1.6948302911931816 0.4921875 1.775529865056818 Q 0.4921875 1.8562294389204543 0.53759765625 1.9072326349431816 Q 0.5830078125 1.958235830965909 0.6645063920454546 1.958235830965909 Q 0.744140625 1.958235830965909 0.7896839488636364 1.9078984730113635 Q 0.8352272727272727 1.857561115056818 0.8352272727272727 1.7760625355113635 Q 0.8352272727272727 1.6937649502840908 0.7884854403409091 1.641430078125 Q 0.7417436079545454 1.589095205965909 0.6599786931818181 1.589095205965909 L 0.6599786931818181 1.589095205965909 Z M 1.1742720170454544 1.5677883877840908 Q 1.1742720170454544 1.5776427911931816 1.1697443181818181 1.5849670099431816 Q 1.1652166193181817 1.5922912286931816 1.1550958806818181 1.5922912286931816 L 1.0957031249999998 1.5922912286931816 L 1.0957031249999998 1.9550398082386362 L 1.2832031249999998 1.9550398082386362 Q 1.3058416193181817 1.9550398082386362 1.3222212357954544 1.9486477627840908 Q 1.338600852272727 1.9422557173295454 1.3404651988636362 1.921215234375 L 1.3481889204545454 1.8463750355113635 Q 1.3492542613636362 1.8375859730113635 1.3549804687499998 1.8335909446022727 Q 1.3607066761363635 1.8295959161931816 1.370028409090909 1.8295959161931816 Q 1.3798828124999998 1.8295959161931816 1.3872070312499998 1.8349226207386362 Q 1.3945312499999998 1.8402493252840908 1.3945312499999998 1.850902734375 L 1.382546164772727 1.9838040127840908 Q 1.381747159090909 1.991261399147727 1.377752130681818 1.9965881036931816 Q 1.373757102272727 2.001914808238636 1.3662997159090908 2.001914808238636 L 0.9537464488636362 2.001914808238636 Q 0.9444247159090908 2.001914808238636 0.9392311789772726 1.9951232599431816 Q 0.9340376420454545 1.988331711647727 0.9340376420454545 1.979542649147727 Q 0.9340376420454545 1.9696882457386362 0.9385653409090908 1.9623640269886362 Q 0.9430930397727272 1.9550398082386362 0.9532137784090908 1.9550398082386362 L 1.0333806818181817 1.9550398082386362 L 1.0333806818181817 1.5922912286931816 L 0.9697265624999999 1.5922912286931816 Q 0.9596058238636362 1.5922912286931816 0.9550781249999999 1.5849670099431816 Q 0.9505504261363635 1.5776427911931816 0.9505504261363635 1.5677883877840908 Q 0.9505504261363635 1.5589993252840908 0.9557439630681817 1.5522077769886362 Q 0.9609374999999999 1.5454162286931816 0.9702592329545453 1.5454162286931816 L 1.1545632102272725 1.5454162286931816 Q 1.1638849431818181 1.5454162286931816 1.1690784801136362 1.5522077769886362 Q 1.1742720170454544 1.5589993252840908 1.1742720170454544 1.5677883877840908 L 1.1742720170454544 1.5677883877840908 Z M 1.6680575284090908 2.0085731889204546 Q 1.5881569602272725 2.0085731889204546 1.5372869318181817 1.9642283735795454 Q 1.4864169034090908 1.9198835582386362 1.4864169034090908 1.841048330965909 L 1.4864169034090908 1.5922912286931816 L 1.446200284090909 1.5922912286931816 Q 1.4360795454545454 1.5922912286931816 1.431551846590909 1.5849670099431816 Q 1.4270241477272727 1.5776427911931816 1.4270241477272727 1.5677883877840908 Q 1.4270241477272727 1.5589993252840908 1.4322176846590908 1.5522077769886362 Q 1.437411221590909 1.5454162286931816 1.4467329545454544 1.5454162286931816 L 1.602272727272727 1.5454162286931816 Q 1.6115944602272725 1.5454162286931816 1.6166548295454544 1.5522077769886362 Q 1.6217151988636362 1.5589993252840908 1.6217151988636362 1.5677883877840908 Q 1.6217151988636362 1.5776427911931816 1.6173206676136362 1.5849670099431816 Q 1.6129261363636362 1.5922912286931816 1.6028053977272725 1.5922912286931816 L 1.548739346590909 1.5922912286931816 L 1.548739346590909 1.841048330965909 Q 1.548739346590909 1.897777734375 1.5797674005681817 1.929338458806818 Q 1.6107954545454544 1.9608991832386362 1.6680575284090908 1.9608991832386362 Q 1.7202592329545454 1.9608991832386362 1.7515536221590908 1.9273409446022727 Q 1.7828480113636362 1.893782705965909 1.7828480113636362 1.8415810014204543 L 1.7828480113636362 1.5922912286931816 L 1.7319779829545454 1.5922912286931816 Q 1.7218572443181817 1.5922912286931816 1.7173295454545454 1.5849670099431816 Q 1.712801846590909 1.5776427911931816 1.712801846590909 1.5677883877840908 Q 1.712801846590909 1.5589993252840908 1.717995383522727 1.5522077769886362 Q 1.7231889204545454 1.5454162286931816 1.7325106534090908 1.5454162286931816 L 1.879794034090909 1.5454162286931816 Q 1.8891157670454544 1.5454162286931816 1.8943093039772725 1.5522077769886362 Q 1.8995028409090908 1.5589993252840908 1.8995028409090908 1.5677883877840908 Q 1.8995028409090908 1.5776427911931816 1.8949751420454544 1.5849670099431816 Q 1.890447443181818 1.5922912286931816 1.8803267045454544 1.5922912286931816 L 1.8339843749999998 1.5922912286931816 L 1.8339843749999998 1.8415810014204543 Q 1.8339843749999998 1.9156221946022727 1.787908380681818 1.9620976917613635 Q 1.7418323863636362 2.0085731889204546 1.6680575284090908 2.0085731889204546 L 1.6680575284090908 2.0085731889204546 Z M 1.9397194602272725 1.686573899147727 Q 1.9309303977272725 1.686573899147727 1.9262695312499998 1.680714524147727 Q 1.921608664772727 1.674855149147727 1.921608664772727 1.665267080965909 L 1.925603693181818 1.5661903764204546 Q 1.9258700284090908 1.555803302556818 1.9293323863636362 1.550609765625 Q 1.9327947443181817 1.5454162286931816 1.9418501420454544 1.5454162286931816 L 2.325905539772727 1.5454162286931816 Q 2.334428267045454 1.5454162286931816 2.3381569602272725 1.5507429332386362 Q 2.341885653409091 1.5560696377840908 2.3421519886363633 1.5661903764204546 L 2.346147017045454 1.665267080965909 Q 2.346147017045454 1.674855149147727 2.3414861505681817 1.680714524147727 Q 2.3368252840909087 1.686573899147727 2.3280362215909087 1.686573899147727 Q 2.3187144886363633 1.686573899147727 2.31298828125 1.6825788707386362 Q 2.3072620738636362 1.6785838423295454 2.3061967329545454 1.6687294389204546 L 2.297940340909091 1.5922912286931816 L 2.162109375 1.5922912286931816 L 2.162109375 1.9550398082386362 L 2.2326882102272725 1.9550398082386362 Q 2.2428089488636362 1.9550398082386362 2.2472034801136362 1.9623640269886362 Q 2.2515980113636362 1.9696882457386362 2.2515980113636362 1.979542649147727 Q 2.2515980113636362 1.988331711647727 2.246537642045454 1.9951232599431816 Q 2.2414772727272725 2.001914808238636 2.232155539772727 2.001914808238636 L 2.0302734375 2.001914808238636 Q 2.020951704545454 2.001914808238636 2.0157581676136362 1.9951232599431816 Q 2.010564630681818 1.988331711647727 2.010564630681818 1.979542649147727 Q 2.010564630681818 1.9696882457386362 2.015092329545454 1.9623640269886362 Q 2.019620028409091 1.9550398082386362 2.029740767045454 1.9550398082386362 L 2.100053267045454 1.9550398082386362 L 2.100053267045454 1.5922912286931816 L 1.969549005681818 1.5922912286931816 L 1.9615589488636362 1.6687294389204546 Q 1.9604936079545452 1.678850177556818 1.9547674005681817 1.6827120383522727 Q 1.949041193181818 1.686573899147727 1.9397194602272725 1.686573899147727 L 1.9397194602272725 1.686573899147727 Z M 2.377574573863636 1.979542649147727 Q 2.377574573863636 1.9696882457386362 2.381969105113636 1.9623640269886362 Q 2.386363636363636 1.9550398082386362 2.3964843749999996 1.9550398082386362 L 2.461470170454545 1.9550398082386362 L 2.461470170454545 1.5922912286931816 L 2.3964843749999996 1.5922912286931816 Q 2.386363636363636 1.5922912286931816 2.381969105113636 1.5849670099431816 Q 2.377574573863636 1.5776427911931816 2.377574573863636 1.5677883877840908 Q 2.377574573863636 1.5589993252840908 2.382634943181818 1.5522077769886362 Q 2.3876953124999996 1.5454162286931816 2.397017045454545 1.5454162286931816 L 2.5879794034090904 1.5454162286931816 Q 2.597301136363636 1.5454162286931816 2.602494673295454 1.5522077769886362 Q 2.6076882102272725 1.5589993252840908 2.6076882102272725 1.5677883877840908 Q 2.6076882102272725 1.5776427911931816 2.603160511363636 1.5849670099431816 Q 2.5986328124999996 1.5922912286931816 2.588512073863636 1.5922912286931816 L 2.5237926136363633 1.5922912286931816 L 2.5237926136363633 1.9550398082386362 L 2.588512073863636 1.9550398082386362 Q 2.5986328124999996 1.9550398082386362 2.603160511363636 1.9623640269886362 Q 2.6076882102272725 1.9696882457386362 2.6076882102272725 1.979542649147727 Q 2.6076882102272725 1.988331711647727 2.602494673295454 1.9951232599431816 Q 2.597301136363636 2.001914808238636 2.5879794034090904 2.001914808238636 L 2.397017045454545 2.001914808238636 Q 2.3876953124999996 2.001914808238636 2.382634943181818 1.9951232599431816 Q 2.377574573863636 1.988331711647727 2.377574573863636 1.979542649147727 L 2.377574573863636 1.979542649147727 Z M 2.886274857954545 2.0085731889204546 Q 2.7821377840909087 2.0085731889204546 2.7158203124999996 1.9447859019886362 Q 2.6495028409090904 1.880998615056818 2.6495028409090904 1.775529865056818 Q 2.6495028409090904 1.6697947798295454 2.7158203124999996 1.6042763139204546 Q 2.7821377840909087 1.5387578480113635 2.886274857954545 1.5387578480113635 Q 2.991743607954545 1.5387578480113635 3.0584605823863633 1.6042763139204546 Q 3.125177556818181 1.6697947798295454 3.125177556818181 1.775529865056818 Q 3.125177556818181 1.880998615056818 3.0581942471590904 1.9447859019886362 Q 2.9912109374999996 2.0085731889204546 2.886274857954545 2.0085731889204546 L 2.886274857954545 2.0085731889204546 Z M 2.8838778409090904 1.589095205965909 Q 2.8045099431818175 1.589095205965909 2.760298295454545 1.6419627485795454 Q 2.716086647727272 1.6948302911931816 2.716086647727272 1.775529865056818 Q 2.716086647727272 1.8562294389204543 2.761496803977272 1.9072326349431816 Q 2.806906960227272 1.958235830965909 2.8884055397727266 1.958235830965909 Q 2.968039772727272 1.958235830965909 3.0135830965909087 1.9078984730113635 Q 3.059126420454545 1.857561115056818 3.059126420454545 1.7760625355113635 Q 3.059126420454545 1.6937649502840908 3.012384588068181 1.641430078125 Q 2.9656427556818175 1.589095205965909 2.8838778409090904 1.589095205965909 L 2.8838778409090904 1.589095205965909 Z M 3.1579367897727266 1.5677883877840908 Q 3.1579367897727266 1.5589993252840908 3.1631303267045445 1.5522077769886362 Q 3.168323863636363 1.5454162286931816 3.1776455965909083 1.5454162286931816 L 3.3009588068181808 1.5454162286931816 Q 3.3073508522727266 1.5454162286931816 3.310813210227272 1.5475469105113635 Q 3.3142755681818175 1.5496775923295454 3.316672585227272 1.554737961647727 L 3.550781249999999 1.8884560014204543 L 3.550781249999999 1.5922912286931816 L 3.5028409090909083 1.5922912286931816 Q 3.4927201704545445 1.5922912286931816 3.4881924715909083 1.5849670099431816 Q 3.483664772727272 1.5776427911931816 3.483664772727272 1.5677883877840908 Q 3.483664772727272 1.5589993252840908 3.48885830965909 1.5522077769886362 Q 3.4940518465909083 1.5454162286931816 3.5033735795454537 1.5454162286931816 L 3.6583806818181808 1.5454162286931816 Q 3.6677024147727266 1.5454162286931816 3.6727627840909083 1.5522077769886362 Q 3.67782315340909 1.5589993252840908 3.67782315340909 1.5677883877840908 Q 3.67782315340909 1.5776427911931816 3.67342862215909 1.5849670099431816 Q 3.66903409090909 1.5922912286931816 3.6589133522727266 1.5922912286931816 L 3.6059126420454537 1.5922912286931816 L 3.6059126420454537 1.9877990411931816 Q 3.6059126420454537 1.9979197798295454 3.5988547585227266 2.004844495738636 Q 3.591796874999999 2.011769211647727 3.5819424715909083 2.011769211647727 Q 3.5734197443181808 2.011769211647727 3.5674272017045445 2.007641015625 Q 3.5614346590909083 2.0035128196022725 3.5574396306818175 1.9976534446022727 L 3.2863103693181808 1.6141307173295454 L 3.2863103693181808 1.9550398082386362 L 3.3331853693181808 1.9550398082386362 Q 3.3433061079545445 1.9550398082386362 3.3478338068181808 1.9623640269886362 Q 3.3523615056818175 1.9696882457386362 3.3523615056818175 1.979542649147727 Q 3.3523615056818175 1.988331711647727 3.347167968749999 1.9951232599431816 Q 3.3419744318181808 2.001914808238636 3.3326526988636354 2.001914808238636 L 3.1776455965909083 2.001914808238636 Q 3.168323863636363 2.001914808238636 3.1631303267045445 1.9951232599431816 Q 3.1579367897727266 1.988331711647727 3.1579367897727266 1.979542649147727 Q 3.1579367897727266 1.9696882457386362 3.162464488636363 1.9623640269886362 Q 3.166992187499999 1.9550398082386362 3.177112926136363 1.9550398082386362 L 3.2301136363636354 1.9550398082386362 L 3.2301136363636354 1.5922912286931816 L 3.177112926136363 1.5922912286931816 Q 3.166992187499999 1.5922912286931816 3.162464488636363 1.5849670099431816 Q 3.1579367897727266 1.5776427911931816 3.1579367897727266 1.5677883877840908 L 3.1579367897727266 1.5677883877840908 Z" fill="#d56a34" fill-rule="nonzero"></path></g><g clip-path="url(&quot;#SvgjsClipPath1018&quot;)"><g clip-path="url(&quot;#SvgjsClipPath1008&quot;)"><path d=" M -0.9831903047056043 -0.04885557796244888 L -0.7380813360612204 -0.04885557796244888 L -0.7380813360612204 0.19625339068193545 L -0.9831903047056043 0.19625339068193545 Z" fill="#3f170e" transform="matrix(1,0,0,1,0,0)" fill-rule="nonzero"></path></g><g clip-path="url(&quot;#SvgjsClipPath1008&quot;)"><path d=" M -0.6447568005859874 1.3739033779618512 L -0.3999999999999999 1.3739033779618512 L -0.3999999999999999 -0.04885557796244888 L -0.6447568005859874 -0.04885557796244888 L -0.6447568005859874 0.28922575809877094 L -0.7032166982799064 0.28922575809877094 L -0.7380813360612195 0.28922575809877094 L -0.9831903047056043 0.28922575809877094 L -1.3240889852340008 0.28922575809877094 L -1.8227589559243 0.28922575809877094 L -1.8227589559243 0.5343347267431553 L -0.6447568005859874 0.5343347267431553 L -0.6447568005859874 0.8713595586291838 L -0.6447568005859874 1.3739033779618512 Z" fill="#d56a34" transform="matrix(1,0,0,1,0,0)" fill-rule="evenodd"></path></g><g clip-path="url(&quot;#SvgjsClipPath1008&quot;)"><path d=" M -0.6447568005859874 1.467580081495481 L -0.3999999999999999 1.467580081495481 L -0.3999999999999999 1.7126890501398653 L -0.6447568005859874 1.7126890501398653 Z" fill="#c08c46" transform="matrix(1,0,0,1,0,0)" fill-rule="nonzero"></path></g><g clip-path="url(&quot;#SvgjsClipPath1008&quot;)"><path d=" M -1.8227589559243 1.8056614175567007 L -1.8227589559243 2.0507703862010853 L -0.3999999999999999 2.0507703862010853 L -0.3999999999999999 1.8056614175567007 L -0.7380813360612195 1.8056614175567007 L -0.7380813360612195 1.7651620908410337 L -0.7380813360612195 1.7123368820814682 L -0.7380813360612195 1.467580081495481 L -0.7380813360612195 0.8713595586291838 L -0.7380813360612195 0.6276592622183879 L -0.9831903047056043 0.6276592622183879 L -0.9831903047056043 1.8056614175567007 L -1.3571927827233286 1.8056614175567007 L -1.8227589559243 1.8056614175567007 Z" fill="#3f170e" transform="matrix(1,0,0,1,0,0)" fill-rule="evenodd"></path></g><g clip-path="url(&quot;#SvgjsClipPath1008&quot;)"><path d=" M -2.161192460043917 1.8056614175567007 L -1.9160834913995326 1.8056614175567007 L -1.9160834913995326 2.0504182181426875 L -2.161192460043917 2.0504182181426875 Z" fill="#c08c46" transform="matrix(1,0,0,1,0,0)" fill-rule="nonzero"></path></g><g clip-path="url(&quot;#SvgjsClipPath1008&quot;)"><path d=" M -2.2545169955191495 0.6276592622183879 L -2.499273796105137 0.6276592622183879 L -2.499273796105137 2.0507703862010853 L -2.2545169955191495 2.0507703862010853 L -2.2545169955191495 1.7123368820814682 L -2.2076786437523346 1.7123368820814682 L -2.161192460043917 1.7123368820814682 L -1.9160834913995326 1.7123368820814682 L -1.3571927827233286 1.7123368820814682 L -1.0765148401808367 1.7123368820814682 L -1.0765148401808367 1.467580081495481 L -2.2545169955191495 1.467580081495481 L -2.2545169955191495 0.6276592622183879 Z" fill="#c08c46" transform="matrix(1,0,0,1,0,0)" fill-rule="evenodd"></path></g><g clip-path="url(&quot;#SvgjsClipPath1008&quot;)"><path d=" M -2.499273796105137 0.32620340423046684 L -2.2545169955191495 0.32620340423046684 L -2.2545169955191495 0.5343347267431553 L -2.499273796105137 0.5343347267431553 Z" fill="#d56a34" transform="matrix(1,0,0,1,0,0)" fill-rule="nonzero"></path></g><g clip-path="url(&quot;#SvgjsClipPath1008&quot;)"><path d=" M -1.0765148401808367 0.19625339068193545 L -1.0765148401808367 -0.04885557796244888 L -2.499273796105137 -0.04885557796244888 L -2.499273796105137 0.19625339068193545 L -2.161192460043917 0.19625339068193545 L -2.161192460043917 0.26105231342700264 L -2.161192460043917 0.32620340423046684 L -2.161192460043917 0.5343347267431553 L -2.161192460043917 1.0474435878277357 L -2.161192460043917 1.3739033779618512 L -1.9160834913995326 1.3739033779618512 L -1.9160834913995326 0.19625339068193545 L -1.3240889852340008 0.19625339068193545 L -1.0765148401808367 0.19625339068193545 Z" fill="#c08c46" transform="matrix(1,0,0,1,0,0)" fill-rule="evenodd"></path></g></g></g><defs><clipPath id="SvgjsClipPath1018"><path d=" M -2.499273796105137 -0.04885557796244888 h 2.099273796105137 v 2.099625964163534 h -2.099273796105137 Z"></path></clipPath><clipPath id="SvgjsClipPath1008"><path d=" M -2.499273796105137 -0.04885557796244888 L -0.3999999999999999 -0.04885557796244888 L -0.3999999999999999 2.0507703862010853 L -2.4992737961051366 2.0507703862010853 Z"></path></clipPath></defs></svg>